<svg xmlns="http://www.w3.org/2000/svg" viewBox="0 0 19 19"><defs><style>.cls-1,.cls-2{fill:#b4b4b4;}.cls-1{fill-rule:evenodd;}</style></defs><title>_05_ libraries -37</title><g id="Layer_1_copy_6" data-name="Layer 1 copy 6"><path class="cls-1" d="M16.139,15.183v.709A1.008,1.008,0,0,1,15.131,16.9l-11.2-.048a1.008,1.008,0,0,1-1.008-1.008v-.709a1.008,1.008,0,0,1,1.008-1.008l11.2.048A1.008,1.008,0,0,1,16.139,15.183Z"/><path class="cls-2" d="M8.64,9.08l-.017.007-.053-.05q-.654-.624-1.308-1.248a.91.91,0,0,0-1-.21.833.833,0,0,0-.3,1.373c.072.073.148.142.222.212l2.746,2.614a.9.9,0,0,0,1.243,0l2.09-2c.291-.278.589-.549.871-.837a.777.777,0,0,0,.185-.863.834.834,0,0,0-.667-.551.918.918,0,0,0-.843.267c-.432.417-.867.83-1.3,1.245-.017.016-.036.032-.068.061V8.991q0-2.969,0-5.939A.9.9,0,0,0,8.638,3.1c.006,1.966,0,3.931,0,5.9Q8.64,9.037,8.64,9.08Z"/></g></svg>
